<svg width="181" height="198" viewBox="0 0 181 198" fill="none" xmlns="http://www.w3.org/2000/svg">
<path d="M174.35 0H62.91C46.2291 0.0238196 30.2385 6.66221 18.4452 18.4593C6.65182 30.2564 0.0185174 46.2491 0 62.93V171.48C0 173.154 0.664801 174.758 1.84816 175.942C3.03151 177.125 4.63649 177.79 6.31 177.79H55.31C56.0475 177.79 56.779 177.658 57.47 177.4V194.56L85.63 173.62L57.5 152.73V165.56C56.809 165.302 56.0775 165.17 55.34 165.17H12.6V62.93C12.6159 49.5918 17.9215 36.8045 27.353 27.373C36.7845 17.9415 49.5718 12.6359 62.91 12.62H168V165.17H126.32V152.73C126.319 152.235 126.18 151.75 125.92 151.328C125.659 150.907 125.288 150.566 124.845 150.344C124.403 150.121 123.908 150.025 123.414 150.067C122.921 150.109 122.449 150.286 122.05 150.58L93.92 171.5C93.585 171.748 93.3127 172.072 93.1252 172.444C92.9376 172.817 92.8399 173.228 92.8399 173.645C92.8399 174.062 92.9376 174.473 93.1252 174.846C93.3127 175.218 93.585 175.542 93.92 175.79L122.05 196.71C122.449 197.004 122.921 197.181 123.414 197.223C123.908 197.265 124.403 197.169 124.845 196.946C125.288 196.724 125.659 196.383 125.92 195.961C126.18 195.54 126.319 195.055 126.32 194.56V177.79H174.32C175.993 177.787 177.596 177.122 178.779 175.939C179.962 174.756 180.627 173.153 180.63 171.48V6.31C180.627 4.64247 179.966 3.04353 178.79 1.8616C177.613 0.679675 176.018 0.010552 174.35 0ZM121 189.24L100 173.62L121 158.03V189.24Z" fill="#05D0B6"/>
<path d="M174.35 0H62.91C46.2291 0.0238196 30.2385 6.66221 18.4452 18.4593C6.65182 30.2564 0.0185174 46.2491 0 62.93V171.48C0 173.154 0.664801 174.758 1.84816 175.942C3.03151 177.125 4.63649 177.79 6.31 177.79H55.31C56.0475 177.79 56.779 177.658 57.47 177.4V194.56L85.63 173.62L57.5 152.73V165.56C56.809 165.302 56.0775 165.17 55.34 165.17H12.6V62.93C12.6159 49.5918 17.9215 36.8045 27.353 27.373C36.7845 17.9415 49.5718 12.6359 62.91 12.62H168V165.17H126.32V152.73C126.319 152.235 126.18 151.75 125.92 151.328C125.659 150.907 125.288 150.566 124.845 150.344C124.403 150.121 123.908 150.025 123.414 150.067C122.921 150.109 122.449 150.286 122.05 150.58L93.92 171.5C93.585 171.748 93.3127 172.072 93.1252 172.444C92.9376 172.817 92.8399 173.228 92.8399 173.645C92.8399 174.062 92.9376 174.473 93.1252 174.846C93.3127 175.218 93.585 175.542 93.92 175.79L122.05 196.71C122.449 197.004 122.921 197.181 123.414 197.223C123.908 197.265 124.403 197.169 124.845 196.946C125.288 196.724 125.659 196.383 125.92 195.961C126.18 195.54 126.319 195.055 126.32 194.56V177.79H174.32C175.993 177.787 177.596 177.122 178.779 175.939C179.962 174.756 180.627 173.153 180.63 171.48V6.31C180.627 4.64247 179.966 3.04353 178.79 1.8616C177.613 0.679675 176.018 0.010552 174.35 0ZM121 189.24L100 173.62L121 158.03V189.24Z" fill="#05D0B6"/>
<path d="M55.2999 88.89C62.6895 88.89 68.6799 82.8996 68.6799 75.51C68.6799 68.1204 62.6895 62.13 55.2999 62.13C47.9104 62.13 41.9199 68.1204 41.9199 75.51C41.9199 82.8996 47.9104 88.89 55.2999 88.89Z" fill="#05D0B6"/>
<path d="M132.44 79.34H109.58C108.599 79.2898 107.675 78.865 106.999 78.1531C106.323 77.4413 105.946 76.4969 105.946 75.515C105.946 74.5331 106.323 73.5887 106.999 72.8768C107.675 72.165 108.599 71.7402 109.58 71.69H132.44C132.959 71.6635 133.477 71.7427 133.965 71.923C134.452 72.1032 134.897 72.3807 135.274 72.7385C135.65 73.0963 135.95 73.5269 136.155 74.0042C136.36 74.4815 136.466 74.9956 136.466 75.515C136.466 76.0344 136.36 76.5484 136.155 77.0258C135.95 77.5031 135.65 77.9337 135.274 78.2915C134.897 78.6493 134.452 78.9267 133.965 79.107C133.477 79.2872 132.959 79.3665 132.44 79.34Z" fill="#05D0B6"/>
<path d="M91.69 111.99C91.7153 114.937 90.9891 117.842 89.58 120.43C88.3701 122.7 86.4777 124.533 84.17 125.67C67.55 135.3 40.17 123.28 38.27 97.46C41.9053 102.351 47.2704 105.67 53.27 106.74C55.5764 107.186 57.921 107.403 60.27 107.39C63.1961 107.37 66.1156 107.112 69 106.62C69.2264 106.582 69.4384 106.484 69.6142 106.336C69.79 106.188 69.9232 105.996 70 105.78C70.8418 103.388 72.3177 101.269 74.27 99.65C75.9575 98.2472 78.0758 97.467 80.27 97.44C86.59 97.46 91.69 103.97 91.69 111.99Z" fill="#05D0B6"/>
<path d="M71.3901 102.96C68.5001 119.46 60.5901 108.56 61.1601 107.72C61.7301 106.88 65.5701 109.05 71.3901 102.96Z" fill="#05D0B6"/>
<path d="M87.55 111.99C87.5246 114.937 88.2508 117.842 89.66 120.43C90.8699 122.7 92.7623 124.533 95.07 125.67C111.69 135.3 139.07 123.28 140.97 97.46C137.335 102.351 131.97 105.67 125.97 106.74C123.664 107.186 121.319 107.403 118.97 107.39C116.061 107.374 113.158 107.123 110.29 106.64C110.065 106.601 109.855 106.503 109.68 106.358C109.504 106.212 109.37 106.023 109.29 105.81C108.45 103.414 106.974 101.292 105.02 99.67C103.332 98.2686 101.214 97.4886 99.02 97.46C92.65 97.46 87.55 103.97 87.55 111.99Z" fill="#05D0B6"/>
<path d="M107.85 102.96C110.74 119.46 118.65 108.56 118.08 107.72C117.51 106.88 113.67 109.05 107.85 102.96Z" fill="#05D0B6"/>
</svg>
