<svg width="181" height="198" viewBox="0 0 181 198" fill="none" xmlns="http://www.w3.org/2000/svg">
<path d="M174.35 0H62.91C46.2291 0.0238196 30.2385 6.66221 18.4452 18.4593C6.65182 30.2564 0.0185174 46.2491 0 62.93V171.48C0 173.153 0.664801 174.758 1.84816 175.942C3.03151 177.125 4.63649 177.79 6.31 177.79H55.31C56.0475 177.79 56.779 177.658 57.47 177.4V194.56L85.63 173.62L57.5 152.73V165.56C56.809 165.302 56.0775 165.17 55.34 165.17H12.6V62.93C12.6159 49.5918 17.9215 36.8045 27.353 27.373C36.7845 17.9415 49.5718 12.6359 62.91 12.62H168V165.17H126.32V152.73C126.319 152.235 126.18 151.75 125.92 151.328C125.659 150.907 125.288 150.566 124.845 150.344C124.403 150.121 123.908 150.025 123.414 150.067C122.921 150.109 122.449 150.286 122.05 150.58L93.92 171.5C93.585 171.748 93.3127 172.072 93.1252 172.444C92.9376 172.817 92.8399 173.228 92.8399 173.645C92.8399 174.062 92.9376 174.473 93.1252 174.846C93.3127 175.218 93.585 175.542 93.92 175.79L122.05 196.71C122.449 197.004 122.921 197.181 123.414 197.223C123.908 197.265 124.403 197.169 124.845 196.946C125.288 196.724 125.659 196.383 125.92 195.961C126.18 195.54 126.319 195.055 126.32 194.56V177.79H174.32C175.993 177.787 177.596 177.122 178.779 175.939C179.962 174.756 180.627 173.153 180.63 171.48V6.31C180.627 4.64247 179.966 3.04353 178.79 1.8616C177.613 0.679675 176.018 0.010552 174.35 0V0ZM121 189.24L100 173.62L121 158.03V189.24Z" fill="#05D0B6"/>
</svg>
