<svg width="971" height="198" viewBox="0 0 971 198" fill="none" xmlns="http://www.w3.org/2000/svg">
<path d="M174.35 0H62.91C46.2291 0.0238196 30.2385 6.66221 18.4452 18.4593C6.65182 30.2564 0.0185174 46.2491 0 62.93V171.48C0 173.153 0.664801 174.758 1.84816 175.942C3.03151 177.125 4.63649 177.79 6.31 177.79H55.31C56.0475 177.79 56.779 177.658 57.47 177.4V194.56L85.63 173.62L57.5 152.73V165.56C56.809 165.302 56.0775 165.17 55.34 165.17H12.6V62.93C12.6159 49.5918 17.9215 36.8045 27.353 27.373C36.7845 17.9415 49.5718 12.6359 62.91 12.62H168V165.17H126.32V152.73C126.319 152.235 126.18 151.75 125.92 151.328C125.659 150.907 125.288 150.566 124.845 150.344C124.403 150.121 123.908 150.025 123.414 150.067C122.921 150.109 122.449 150.286 122.05 150.58L93.92 171.5C93.585 171.748 93.3127 172.072 93.1252 172.444C92.9376 172.817 92.8399 173.228 92.8399 173.645C92.8399 174.062 92.9376 174.473 93.1252 174.846C93.3127 175.218 93.585 175.542 93.92 175.79L122.05 196.71C122.449 197.004 122.921 197.181 123.414 197.223C123.908 197.265 124.403 197.169 124.845 196.946C125.288 196.724 125.659 196.383 125.92 195.961C126.18 195.54 126.319 195.055 126.32 194.56V177.79H174.32C175.993 177.787 177.596 177.122 178.779 175.939C179.962 174.756 180.627 173.153 180.63 171.48V6.31C180.627 4.64247 179.966 3.04353 178.79 1.8616C177.613 0.679675 176.018 0.010552 174.35 0V0ZM121 189.24L100 173.62L121 158.03V189.24Z" fill="#05D0B6"/>
<path d="M55.2999 88.89C62.6895 88.89 68.6799 82.8996 68.6799 75.51C68.6799 68.1204 62.6895 62.13 55.2999 62.13C47.9104 62.13 41.9199 68.1204 41.9199 75.51C41.9199 82.8996 47.9104 88.89 55.2999 88.89Z" fill="#05D0B6"/>
<path d="M132.44 79.34H109.58C108.599 79.2898 107.675 78.865 106.999 78.1531C106.323 77.4413 105.946 76.4969 105.946 75.515C105.946 74.5331 106.323 73.5887 106.999 72.8768C107.675 72.165 108.599 71.7402 109.58 71.69H132.44C132.959 71.6635 133.477 71.7427 133.965 71.923C134.452 72.1032 134.897 72.3807 135.274 72.7385C135.65 73.0963 135.95 73.5269 136.155 74.0042C136.36 74.4815 136.466 74.9956 136.466 75.515C136.466 76.0344 136.36 76.5484 136.155 77.0258C135.95 77.5031 135.65 77.9337 135.274 78.2915C134.897 78.6493 134.452 78.9267 133.965 79.107C133.477 79.2872 132.959 79.3665 132.44 79.34V79.34Z" fill="#05D0B6"/>
<path d="M91.69 111.99C91.7153 114.937 90.9891 117.842 89.58 120.43C88.3701 122.7 86.4777 124.533 84.17 125.67C67.55 135.3 40.17 123.28 38.27 97.46C41.9053 102.351 47.2704 105.67 53.27 106.74C55.5764 107.186 57.921 107.403 60.27 107.39C63.1961 107.37 66.1156 107.112 69 106.62C69.2264 106.582 69.4384 106.484 69.6142 106.336C69.79 106.188 69.9232 105.996 70 105.78C70.8418 103.388 72.3177 101.269 74.27 99.65C75.9575 98.2472 78.0758 97.467 80.27 97.44C86.59 97.46 91.69 103.97 91.69 111.99Z" fill="#05D0B6"/>
<path d="M71.3901 102.96C68.5001 119.46 60.5901 108.56 61.1601 107.72C61.7301 106.88 65.5701 109.05 71.3901 102.96Z" fill="#05D0B6"/>
<path d="M87.55 111.99C87.5246 114.937 88.2508 117.842 89.66 120.43C90.8699 122.7 92.7623 124.533 95.07 125.67C111.69 135.3 139.07 123.28 140.97 97.46C137.335 102.351 131.97 105.67 125.97 106.74C123.664 107.186 121.319 107.403 118.97 107.39C116.061 107.374 113.158 107.123 110.29 106.64C110.065 106.601 109.855 106.503 109.68 106.358C109.504 106.212 109.37 106.023 109.29 105.81C108.45 103.414 106.974 101.292 105.02 99.67C103.332 98.2686 101.214 97.4886 99.02 97.46C92.65 97.46 87.55 103.97 87.55 111.99Z" fill="#05D0B6"/>
<path d="M107.85 102.96C110.74 119.46 118.65 108.56 118.08 107.72C117.51 106.88 113.67 109.05 107.85 102.96Z" fill="#05D0B6"/>
<path d="M202.63 178.38V148.62H209.14C214.06 148.62 217.37 147.44 219.07 145.08C220.77 142.72 221.62 139.053 221.62 134.08V16.08H258.41V133.62C258.41 149.573 254.323 161.023 246.15 167.97C237.977 174.917 225.643 178.39 209.15 178.39L202.63 178.38Z" fill="black"/>
<path d="M330 128.51C313.82 128.51 300.68 123.177 290.58 112.51C280.48 101.843 275.43 87.9833 275.43 70.93C275.43 53.99 280.4 39.99 290.34 28.93C300.28 17.87 312.833 12.3267 328 12.3C334.669 12.2307 341.278 13.5628 347.4 16.21C353.16 18.7026 358.239 22.5398 362.21 27.4V16.21H393.94V125.45H361.24V117.13C353.527 124.723 343.113 128.517 330 128.51ZM335.53 97.62C339.027 97.648 342.495 96.9798 345.731 95.6545C348.967 94.3291 351.907 92.373 354.38 89.9002C356.853 87.4273 358.809 84.4872 360.134 81.2509C361.46 78.0147 362.128 74.547 362.1 71.05C362.15 67.4223 361.485 63.8203 360.141 60.4502C358.797 57.0801 356.802 54.0081 354.27 51.41C351.91 48.7834 349.019 46.688 345.788 45.2623C342.558 43.8366 339.061 43.1132 335.53 43.14C328.197 43.14 321.797 45.93 316.33 51.51C313.712 54.044 311.635 57.0814 310.222 60.4396C308.809 63.7977 308.091 67.4069 308.11 71.05C308.06 74.5651 308.746 78.0517 310.124 81.286C311.502 84.5202 313.541 87.4305 316.11 89.83C318.661 92.3613 321.695 94.3549 325.031 95.693C328.366 97.0311 331.936 97.6863 335.53 97.62V97.62Z" fill="black"/>
<path d="M565.82 12.39C580.087 12.39 591.38 16.61 599.7 25.05C608.02 33.49 612.18 44.9133 612.18 59.32V125.07H576.63V66.39C576.63 58.3033 575.123 52.5833 572.11 49.23C569.097 45.8766 563.917 44.21 556.57 44.23C548.81 44.23 543.127 45.98 539.52 49.48C535.913 52.98 534.113 58.5233 534.12 66.11V125.11H498.57V66.39C498.57 58.3033 497.027 52.5833 493.94 49.23C490.853 45.8766 485.677 44.21 478.41 44.23C470.643 44.23 464.977 45.9967 461.41 49.53C457.843 53.0633 456.04 58.5867 456 66.1V125.1H420.61V15.83H456V24.43H456.21C459.123 20.67 463.367 17.7233 468.94 15.59C474.948 13.3838 481.31 12.2991 487.71 12.39C504.13 12.39 516.497 17.8066 524.81 28.64C527.577 25.4533 532.497 22.14 539.57 18.7C543.205 16.529 547.176 14.9779 551.32 14.11C556.071 12.9802 560.936 12.403 565.82 12.39V12.39Z" fill="black"/>
<path d="M687.29 126.55C679.589 126.602 671.955 125.123 664.83 122.2C658.053 119.494 651.906 115.42 646.774 110.233C641.642 105.045 637.634 98.8555 635 92.05C632.071 84.7594 630.593 76.9669 630.65 69.11C630.589 61.2004 632.032 53.3513 634.9 45.98C637.535 39.0991 641.516 32.8131 646.61 27.49C651.691 22.2849 657.769 18.1562 664.48 15.35C671.554 12.364 679.162 10.8531 686.84 10.91C697.155 10.7808 707.29 13.6165 716.04 19.08C724.655 24.4499 731.656 32.0522 736.3 41.08C741.141 50.4221 743.616 60.8088 743.51 71.33L742.51 79.64H664.81C665.89 91.4267 673.027 97.32 686.22 97.32C689.71 97.426 693.191 96.894 696.49 95.75C699.487 94.4662 702.08 92.3924 703.99 89.75H740.4C737.112 100.666 730.211 110.141 720.83 116.62C711.343 123.24 700.163 126.55 687.29 126.55ZM665.21 61.18H708.12C708.073 58.3852 707.47 55.6278 706.348 53.0681C705.225 50.5084 703.604 48.1975 701.58 46.27C699.701 44.3298 697.451 42.7879 694.963 41.7365C692.475 40.685 689.801 40.1454 687.1 40.15C681.372 40.0951 675.855 42.3139 671.76 46.32C669.673 48.1874 668.009 50.4793 666.879 53.0421C665.749 55.6049 665.18 58.3794 665.21 61.18V61.18Z" fill="black"/>
<path d="M758.33 90.62H793.6C794.022 94.1483 795.727 97.3981 798.39 99.75C800.949 102.141 804.328 103.458 807.83 103.43C817.377 103.43 822.153 99.2867 822.16 91C822.142 90.0193 821.883 89.0579 821.408 88.2002C820.932 87.3424 820.253 86.6145 819.43 86.0801C817.29 84.5669 814.869 83.4959 812.31 82.93C809.39 82.1967 806.057 81.4 802.31 80.54C798.563 79.68 794.697 78.8667 790.71 78.1C786.715 77.3411 782.808 76.1751 779.05 74.62C775.531 73.1881 772.178 71.3775 769.05 69.22C766.043 67.0841 763.599 64.2494 761.93 60.96C760.052 57.2435 759.115 53.1231 759.2 48.96C759.2 37.88 763.567 29.0567 772.3 22.49C781.033 15.9234 792.79 12.6434 807.57 12.65C820.563 12.65 831.23 15.8834 839.57 22.35C847.91 28.8167 852.98 37.7534 854.78 49.16H821.68C821.728 47.6133 821.402 46.0778 820.728 44.6847C820.054 43.2916 819.053 42.0823 817.81 41.16C815.23 39.16 811.81 38.16 807.55 38.16C803.35 38.16 800.28 39.03 798.32 40.78C796.36 42.53 795.38 45.26 795.38 48.95C795.38 51.31 796.547 53.2867 798.88 54.88C801.663 56.6585 804.736 57.9345 807.96 58.65C811.673 59.5834 815.763 60.4934 820.23 61.38C824.697 62.2667 829.167 63.38 833.64 64.72C837.885 65.9792 841.994 67.654 845.91 69.72C849.613 71.6905 852.742 74.5882 854.99 78.13C857.38 81.9678 858.596 86.4202 858.49 90.94C858.49 102.66 853.953 111.93 844.88 118.75C835.807 125.57 823.473 128.977 807.88 128.97C793.92 128.97 782.61 125.61 773.95 118.89C765.29 112.17 760.083 102.747 758.33 90.62Z" fill="black"/>
<path d="M875.35 65.12V36.78H869.49V30.91H875.35V19.91H882.66V30.91H894.46V36.78H882.66V64.31C882.66 66.31 883.07 67.81 883.9 68.69C884.73 69.57 886.17 70.02 888.2 70.02C890.378 70.0112 892.523 69.4869 894.46 68.49V74.75C892.048 75.88 889.414 76.4574 886.75 76.44C879.15 76.44 875.35 72.6667 875.35 65.12Z" fill="#05D0B6"/>
<path d="M907.79 24.81C907.147 24.8181 906.509 24.6946 905.916 24.4469C905.323 24.1993 904.786 23.8327 904.34 23.37C903.869 22.9123 903.498 22.3629 903.248 21.7556C902.999 21.1484 902.877 20.4963 902.89 19.84C902.891 18.8682 903.18 17.9185 903.721 17.1111C904.262 16.3038 905.03 15.675 905.928 15.3046C906.827 14.9341 907.815 14.8385 908.767 15.0299C909.72 15.2214 910.595 15.6912 911.28 16.38C911.735 16.8332 912.093 17.3728 912.336 17.9671C912.578 18.5614 912.698 19.1983 912.69 19.84C912.704 20.4928 912.586 21.1418 912.344 21.7482C912.102 22.3546 911.74 22.9062 911.28 23.37C910.831 23.8397 910.288 24.2104 909.687 24.4584C909.086 24.7063 908.44 24.8261 907.79 24.81V24.81ZM904.1 75.62V30.91H911.4V75.62H904.1Z" fill="#05D0B6"/>
<path d="M932.52 67.62V93.71H925.21V30.91H932.52V39.02C934.079 36.2834 936.354 34.0227 939.1 32.48C941.914 30.8914 945.098 30.0739 948.33 30.11C951.409 30.0673 954.466 30.6279 957.33 31.76C959.937 32.7936 962.281 34.3958 964.19 36.45C966.123 38.593 967.6 41.1075 968.53 43.84C970.53 49.9847 970.53 56.6053 968.53 62.75C967.619 65.4703 966.155 67.9728 964.23 70.1C962.323 72.1573 959.979 73.76 957.37 74.79C954.505 75.9164 951.448 76.4768 948.37 76.44C945.13 76.4841 941.934 75.6809 939.1 74.11C936.352 72.5925 934.075 70.3469 932.52 67.62V67.62ZM962.3 53.33C962.387 50.1339 961.701 46.964 960.3 44.09C959.155 41.6907 957.331 39.6808 955.054 38.31C952.776 36.9392 950.146 36.2681 947.49 36.38C945.448 36.3275 943.42 36.727 941.55 37.55C939.941 38.2925 938.473 39.3075 937.21 40.55C935.811 42.0425 934.709 43.7867 933.96 45.69C932.984 48.113 932.508 50.7083 932.56 53.32C932.471 56.4394 933.158 59.532 934.56 62.32C935.764 64.7135 937.592 66.7378 939.85 68.18C942.141 69.5491 944.772 70.2424 947.44 70.18C952.107 70.12 955.733 68.5133 958.32 65.36C960.907 62.2067 962.233 58.1933 962.3 53.32V53.33Z" fill="#05D0B6"/>
</svg>
