<svg width="96" height="24" viewBox="0 0 96 24" fill="none" xmlns="http://www.w3.org/2000/svg">
<path d="M7.4 0.424999H12.025V19H7.4V0.424999ZM3.8 19.175C3.13333 19.175 2.55833 19.0667 2.075 18.85C1.60833 18.6333 1.23333 18.2833 0.95 17.8C0.633333 17.3 0.4 16.6333 0.25 15.8C0.116667 14.9667 0.0500001 13.925 0.0500001 12.675C0.0500001 10.225 0.35 8.50833 0.95 7.525C1.51667 6.55833 2.46667 6.075 3.8 6.075C4.4 6.075 4.89167 6.125 5.275 6.225C5.65833 6.30833 6.01667 6.48333 6.35 6.75V9.925H6.075C5.70833 9.925 5.44167 9.95 5.275 10C5.125 10.0333 5.00833 10.125 4.925 10.275C4.84167 10.4583 4.79167 10.725 4.775 11.075C4.75833 11.325 4.75 11.8417 4.75 12.625C4.75 13.4083 4.75833 13.925 4.775 14.175C4.79167 14.525 4.84167 14.7917 4.925 14.975C5.00833 15.1417 5.14167 15.2417 5.325 15.275C5.55833 15.3083 5.80833 15.325 6.075 15.325H6.35V18.5C6.01667 18.75 5.64167 18.925 5.225 19.025C4.825 19.125 4.35 19.175 3.8 19.175ZM20.1531 11.375H21.9031C21.9031 10.4417 21.8115 9.84167 21.6281 9.575C21.5281 9.425 21.3948 9.33333 21.2281 9.3C21.0615 9.25 20.8198 9.225 20.5031 9.225H20.1531V6.05H20.5031C21.9365 6.05 23.0365 6.16667 23.8031 6.4C24.5865 6.63333 25.1615 7.01667 25.5281 7.55C25.8615 8.01667 26.0615 8.61667 26.1281 9.35C26.2115 10.0833 26.2531 11.1833 26.2531 12.65V13.65H20.1531V11.375ZM21.0031 19.2C19.4698 19.2 18.2615 19.075 17.3781 18.825C16.5115 18.5583 15.8615 18.1417 15.4281 17.575C15.0448 17.075 14.7948 16.4583 14.6781 15.725C14.5615 14.975 14.5031 13.95 14.5031 12.65C14.5031 11.45 14.5448 10.5 14.6281 9.8C14.7115 9.08333 14.8865 8.475 15.1531 7.975C15.4531 7.425 15.9115 7 16.5281 6.7C17.1615 6.38333 18.0198 6.18333 19.1031 6.1V13.65C19.1031 14.2167 19.1281 14.625 19.1781 14.875C19.2281 15.1083 19.3448 15.2833 19.5281 15.4C19.7281 15.5333 20.0365 15.6083 20.4531 15.625C20.9865 15.6583 21.5531 15.675 22.1531 15.675C23.2198 15.675 23.9948 15.65 24.4781 15.6L25.7531 15.5V18.725C25.0865 18.925 24.1698 19.0583 23.0031 19.125C22.4365 19.175 21.7698 19.2 21.0031 19.2ZM27.375 6.25H32.1L35.525 19H31.1L27.375 6.25ZM34.8 12.25L36.1 6.25H40.65L36.925 19H36.625L34.8 12.25ZM51.7695 9.725C51.4529 9.70833 51.0195 9.66667 50.4695 9.6C49.4362 9.5 48.6029 9.45 47.9695 9.45H47.1445V6.05C48.3279 6.05 49.4529 6.13333 50.5195 6.3L51.7695 6.525V9.725ZM48.1445 15.125C48.1445 14.875 48.1029 14.7167 48.0195 14.65C47.9362 14.5833 47.7612 14.5333 47.4945 14.5L44.7945 14.125C44.1279 14.025 43.5862 13.8667 43.1695 13.65C42.7695 13.4333 42.4695 13.1417 42.2695 12.775C42.0695 12.4583 41.9362 12.075 41.8695 11.625C41.8029 11.175 41.7695 10.6167 41.7695 9.95C41.7695 8.58333 42.1779 7.58333 42.9945 6.95C43.6779 6.45 44.7112 6.15833 46.0945 6.075V10C46.0945 10.25 46.1279 10.4167 46.1945 10.5C46.2612 10.5667 46.4695 10.625 46.8195 10.675L49.8195 11.075C50.2529 11.125 50.6279 11.2167 50.9445 11.35C51.2612 11.4667 51.5279 11.65 51.7445 11.9C52.2279 12.4333 52.4695 13.4583 52.4695 14.975C52.4695 16.575 52.0612 17.6917 51.2445 18.325C50.5279 18.8583 49.4945 19.1417 48.1445 19.175V15.125ZM47.0945 19.2C45.7612 19.1833 44.5945 19.1 43.5945 18.95L42.1695 18.725V15.525C42.8362 15.5917 43.7362 15.6583 44.8695 15.725C45.5029 15.7583 45.9529 15.775 46.2195 15.775H47.0945V19.2ZM54.7707 0.424999H59.3957V19H54.7707V0.424999ZM61.9957 12.975C61.9957 12.0917 61.9874 11.5083 61.9707 11.225C61.9374 10.7583 61.8957 10.45 61.8457 10.3C61.779 10.1333 61.6624 10.0333 61.4957 10C61.329 9.95 61.0624 9.925 60.6957 9.925H60.4457V6.875C61.1124 6.34167 61.9624 6.075 62.9957 6.075C64.4957 6.075 65.504 6.53333 66.0207 7.45C66.254 7.85 66.4124 8.34167 66.4957 8.925C66.579 9.49167 66.6207 10.1917 66.6207 11.025V19H61.9957V12.975ZM76.593 12.65C76.593 11.8 76.5846 11.2333 76.568 10.95C76.5513 10.55 76.5013 10.25 76.418 10.05C76.3346 9.83333 76.2013 9.7 76.018 9.65C75.818 9.6 75.543 9.575 75.193 9.575H74.843V6.05H75.193C76.643 6.05 77.7763 6.16667 78.593 6.4C79.4096 6.61667 80.018 6.98333 80.418 7.5C80.7846 7.96667 81.018 8.59167 81.118 9.375C81.2346 10.1417 81.293 11.2333 81.293 12.65C81.293 13.9667 81.2513 14.9917 81.168 15.725C81.1013 16.4417 80.9263 17.0333 80.643 17.5C80.3263 18.0167 79.8513 18.4083 79.218 18.675C78.5846 18.925 77.7096 19.0833 76.593 19.15V12.65ZM75.193 19.2C73.743 19.2 72.6096 19.0917 71.793 18.875C70.9763 18.6583 70.368 18.2917 69.968 17.775C69.6013 17.3083 69.3596 16.6917 69.243 15.925C69.143 15.1583 69.093 14.0667 69.093 12.65C69.093 11.35 69.1346 10.3333 69.218 9.6C69.3013 8.86667 69.4846 8.25833 69.768 7.775C70.068 7.24167 70.5346 6.85 71.168 6.6C71.8013 6.33333 72.6763 6.16667 73.793 6.1V12.65C73.793 13.5 73.8013 14.0583 73.818 14.325C73.8346 14.725 73.8846 15.025 73.968 15.225C74.0513 15.425 74.193 15.55 74.393 15.6C74.5596 15.65 74.8263 15.675 75.193 15.675H75.543V19.2H75.193ZM91.9996 19.175C91.3996 19.175 90.9079 19.125 90.5246 19.025C90.1413 18.9417 89.7829 18.7667 89.4496 18.5V15.325H89.7246C90.0913 15.325 90.3496 15.3083 90.4996 15.275C90.6663 15.225 90.7913 15.125 90.8746 14.975C90.9579 14.7917 91.0079 14.525 91.0246 14.175C91.0413 13.925 91.0496 13.4083 91.0496 12.625C91.0496 11.8417 91.0413 11.325 91.0246 11.075C91.0079 10.7083 90.9579 10.4417 90.8746 10.275C90.8079 10.1083 90.6829 10.0083 90.4996 9.975C90.2663 9.94167 90.0079 9.925 89.7246 9.925H89.4496V6.75C89.7829 6.5 90.1496 6.325 90.5496 6.225C90.9663 6.125 91.4496 6.075 91.9996 6.075C92.6663 6.075 93.2329 6.18333 93.6996 6.4C94.1829 6.61667 94.5746 6.96667 94.8746 7.45C95.4579 8.41667 95.7496 10.125 95.7496 12.575C95.7496 15.0083 95.4579 16.725 94.8746 17.725C94.2913 18.6917 93.3329 19.175 91.9996 19.175ZM83.7746 6.25H88.3996V23.975H83.7746V6.25Z" fill="white"/>
</svg>
