<svg width="23" height="27" viewBox="0 0 23 27" fill="none" xmlns="http://www.w3.org/2000/svg">
<g clip-path="url(#clip0_132_16)">
<path d="M18.9106 8.74227C18.672 8.63403 18.4248 8.53161 18.1702 8.43475C18.2121 8.20967 18.2505 7.98751 18.2846 7.76913C18.8451 4.18321 18.4786 1.29437 17.2273 0.343243C16.0274 -0.568764 14.0652 0.382149 12.0833 2.65545C11.8928 2.87405 11.7017 3.10549 11.5106 3.34805C11.3834 3.18756 11.2563 3.03248 11.1295 2.88414C9.05254 0.453378 6.97068 -0.570977 5.72058 0.382904C4.52187 1.29756 4.16688 4.01334 4.67138 7.41174C4.7201 7.73999 4.77705 8.0752 4.84145 8.41602C4.5468 8.52626 4.26235 8.64379 3.99019 8.76882C1.55513 9.88783 0 11.6416 0 13.4607C0 15.3395 1.66944 17.2239 4.20573 18.3666C4.40589 18.4567 4.61358 18.542 4.82761 18.6229C4.75813 18.9915 4.69771 19.3528 4.64698 19.7051C4.16594 23.0445 4.5416 25.6961 5.73712 26.605C6.97199 27.5436 9.04444 26.5788 11.0625 24.2537C11.222 24.0699 11.3821 23.875 11.5424 23.6707C11.7503 23.9345 11.9578 24.1842 12.1642 24.4184C14.1189 26.6355 16.0495 27.5308 17.2439 26.6194C18.4776 25.6781 18.8785 22.8296 18.358 19.364C18.3182 19.0993 18.272 18.8289 18.22 18.5537C18.3655 18.497 18.5084 18.4384 18.6477 18.3776C21.2845 17.2261 23 15.3646 23 13.4607C23 11.635 21.3947 9.86943 18.9106 8.74227ZM18.3387 17.1483C18.213 17.2031 18.0839 17.2562 17.9524 17.3076C17.6613 16.093 17.2685 14.8014 16.7877 13.467C17.2465 12.1644 17.6242 10.8893 17.9071 9.68256C18.1424 9.77229 18.3707 9.86694 18.5908 9.96683C20.7192 10.9326 22.0174 12.3605 22.0174 13.4607C22.0174 14.6326 20.6153 16.154 18.3387 17.1483ZM17.3941 19.6155C17.6243 21.148 17.6571 22.5335 17.5047 23.6166C17.3677 24.5899 17.0922 25.2387 16.7516 25.4986C16.0267 26.0516 14.4767 25.3328 12.805 23.4367C12.6134 23.2193 12.4203 22.9872 12.2267 22.7416C12.8748 21.8074 13.5225 20.7213 14.1546 19.5151C15.2665 19.385 16.317 19.1724 17.2696 18.8822C17.3165 19.1316 17.3582 19.3763 17.3941 19.6155ZM7.84122 25.4031C7.13304 25.7327 6.56902 25.7422 6.22807 25.483C5.50258 24.9315 5.20098 22.8025 5.61238 19.9466C5.6595 19.6195 5.71559 19.2836 5.78023 18.9402C6.72242 19.2148 7.76519 19.4124 8.87974 19.5315C9.51614 20.7118 10.1826 21.7967 10.8541 22.7466C10.7074 22.9333 10.5613 23.1111 10.4159 23.2786C9.52355 24.3067 8.62931 25.0362 7.84122 25.4031ZM4.52351 17.1411C3.40201 16.6358 2.47583 15.9792 1.84098 15.2626C1.27052 14.6187 0.982512 13.9794 0.982512 13.4607C0.982512 12.3568 2.23113 10.9488 4.31361 9.99176C4.56629 9.87563 4.8308 9.7662 5.1053 9.6634C5.39311 10.8974 5.77065 12.1876 6.22627 13.4922C5.76476 14.8162 5.38185 16.1269 5.09122 17.3754C4.89553 17.3012 4.70594 17.2232 4.52351 17.1411ZM5.63563 7.16303C5.20339 4.25136 5.49046 2.05491 6.21284 1.50374C6.9823 0.916586 8.6838 1.75375 10.4771 3.85259C10.5918 3.98674 10.7068 4.12714 10.8222 4.27241C10.154 5.2182 9.49367 6.29495 8.86291 7.46829C7.7812 7.60044 6.74576 7.81273 5.79374 8.097C5.73389 7.77965 5.68087 7.46786 5.63563 7.16303ZM15.5568 10.392C15.3292 9.8739 15.0956 9.36801 14.8574 8.87594C15.5912 8.99821 16.2943 9.16053 16.9546 9.35916C16.7564 10.1965 16.5093 11.0721 16.2185 11.9696C16.0098 11.4475 15.7892 10.9211 15.5568 10.392ZM11.511 5.19796C11.9642 5.84512 12.418 6.56767 12.8644 7.35163C12.4146 7.32362 11.9592 7.30905 11.5 7.30905C11.0452 7.30905 10.5931 7.3233 10.146 7.35082C10.5929 6.57415 11.0507 5.85257 11.511 5.19796ZM7.43923 10.401C7.21189 10.9206 6.99532 11.4441 6.78997 11.9686C6.50384 11.0742 6.25906 10.1947 6.05911 9.34546C6.71534 9.1519 7.41512 8.99363 8.1443 8.87367C7.90275 9.37028 7.66718 9.87989 7.43923 10.4009V10.401ZM8.1653 18.1401C7.41193 18.0293 6.70162 17.8792 6.04556 17.691C6.24871 16.8265 6.49889 15.9282 6.79108 15.0146C6.99696 15.5387 7.21439 16.0624 7.44312 16.5832H7.44316C7.67615 17.1137 7.91753 17.6333 8.1653 18.1401ZM11.5382 21.8147C11.0725 21.1524 10.608 20.4199 10.1543 19.6319C10.5947 19.6546 11.0437 19.6663 11.5 19.6663C11.9688 19.6663 12.4322 19.6524 12.8884 19.6256C12.4405 20.4278 11.9883 21.1615 11.5382 21.8147ZM16.2278 14.968C16.5353 15.8916 16.7944 16.7852 17.0002 17.6348C16.3333 17.8354 15.6133 17.9969 14.8547 18.1169C15.0934 17.6182 15.3291 17.1036 15.5607 16.5743C15.795 16.0388 16.0175 15.5024 16.2278 14.968ZM14.7096 15.9273C14.3501 16.7489 13.981 17.5333 13.6063 18.2737C12.9238 18.3381 12.2187 18.3712 11.5 18.3712C10.7843 18.3712 10.088 18.3419 9.4176 18.2845C9.02777 17.5344 8.65064 16.7477 8.2934 15.9343H8.29348C7.93718 15.1232 7.60926 14.3052 7.31212 13.4918C7.60917 12.6765 7.93624 11.8575 8.29049 11.0478L8.29041 11.048C8.6456 10.2361 9.01942 9.45327 9.40565 8.70785C10.0897 8.63969 10.7911 8.60413 11.5 8.60413H11.5C12.2121 8.60413 12.9144 8.63996 13.5982 8.70871C13.9785 9.44869 14.3498 10.229 14.7064 11.041C15.067 11.8621 15.3983 12.6755 15.6979 13.4734C15.3992 14.2849 15.0687 15.1066 14.7096 15.9273ZM16.7365 1.46521C17.5067 2.05064 17.8062 4.41169 17.3223 7.50774C17.2915 7.70529 17.2567 7.90651 17.2189 8.11044C16.2647 7.82023 15.2285 7.60427 14.1437 7.47013C13.5117 6.28389 12.8568 5.20546 12.1994 4.27182C12.3762 4.04771 12.5526 3.83402 12.7284 3.63237C14.4264 1.68462 16.0134 0.915614 16.7365 1.46521ZM11.5 10.7536C12.6343 10.7536 13.5538 11.9656 13.5538 13.4607C13.5538 14.9557 12.6343 16.1678 11.5 16.1678C10.3657 16.1678 9.44618 14.9557 9.44618 13.4607C9.44618 11.9656 10.3657 10.7536 11.5 10.7536Z" fill="#00D8FF"/>
</g>
<defs>
<clipPath id="clip0_132_16">
<rect width="23" height="27" fill="white"/>
</clipPath>
</defs>
</svg>
