<svg width="324" height="216" viewBox="0 0 324 216" fill="none" xmlns="http://www.w3.org/2000/svg">
<g clip-path="url(#clip0_2_478)">
<path d="M164.136 60.4684C161.247 55.6903 157.823 50.5888 152.462 49.0286C146.254 47.2218 139.876 50.8111 134.466 54.3529C118.288 64.9454 102.708 76.4246 87.7973 88.738L87.8136 88.9235C99.422 88.123 111.03 87.3224 122.639 86.5219C131.026 85.9435 139.701 85.2854 147.113 81.3178C149.925 79.8122 152.667 77.8011 155.854 77.661C159.814 77.4869 163.266 80.2523 165.979 83.1415C182.029 100.232 186.673 126.368 204.679 141.383C193.325 113.382 179.768 86.3257 164.136 60.4684Z" fill="#CCCCCC"/>
<path d="M262.79 205.428C261.015 203.187 260.29 202.662 258.54 200.4C244.285 181.964 230.886 162.904 218.344 143.222C209.825 129.855 201.729 116.231 194.054 102.35C190.401 95.7509 186.847 89.1001 183.394 82.3974C180.715 77.2003 178.095 71.9722 175.535 66.7129C174.803 65.2108 174.091 63.7017 173.383 62.1892C171.716 58.6324 170.079 55.0584 168.321 51.5499C166.318 47.5511 163.88 43.3589 160.202 40.6723C158.529 39.3995 156.527 38.6293 154.432 38.4519C151.438 38.2585 148.676 39.4948 146.079 40.845C127.079 50.7522 109.292 63.1734 93.2035 77.3074C77.0738 91.4731 62.6565 107.477 50.2455 124.993C49.8658 125.535 48.9679 125.017 49.3512 124.471C50.8603 122.337 52.3993 120.226 53.9682 118.138C73.4763 92.1928 97.3962 69.8812 124.634 52.2233C129.217 49.2535 133.886 46.423 138.641 43.7318C141.037 42.3747 143.444 41.0349 145.892 39.7779C148.292 38.5451 150.841 37.4367 153.583 37.3952C162.913 37.2502 167.744 47.817 171.063 54.9271C172.106 57.1648 173.161 59.3956 174.229 61.6194C178.266 70.0625 182.458 78.4285 186.806 86.7173C189.489 91.835 192.231 96.9227 195.032 101.981C203.747 117.731 213.011 133.162 222.823 148.274C235.821 168.292 248.715 185.976 263.522 204.696C263.93 205.214 263.201 205.953 262.79 205.428Z" fill="#CCCCCC"/>
<path d="M92.2814 72.0895C91.7393 71.4852 91.2006 70.8809 90.655 70.2766C86.3523 65.5181 81.7355 60.8148 75.8269 58.0868C73.0097 56.7449 69.9343 56.0321 66.814 55.9976C63.5888 56.0079 60.4361 56.854 57.456 58.0384C56.047 58.6013 54.6691 59.2401 53.3121 59.9204C51.7616 60.7008 50.2387 61.5331 48.7228 62.3722C45.8773 63.9469 43.0687 65.5906 40.297 67.3034C34.7822 70.7117 29.4401 74.3801 24.2706 78.3087C21.5909 80.3461 18.9664 82.4503 16.3972 84.6212C14.0076 86.6379 11.6664 88.7086 9.37348 90.8335C8.88315 91.2859 8.15102 90.5538 8.64135 90.1014C9.24566 89.5386 9.85689 88.9791 10.4681 88.4266C12.1947 86.8658 13.949 85.3349 15.7309 83.8339C18.9802 81.092 22.3137 78.4561 25.7313 75.926C31.0459 71.9894 36.5434 68.3198 42.2238 64.9172C45.0624 63.2182 47.9401 61.5906 50.8568 60.0344C51.7375 59.5647 52.6284 59.1055 53.5297 58.6704C55.5746 57.6388 57.6995 56.7739 59.8835 56.0839C62.9773 55.0831 66.2506 54.7615 69.48 55.1412C72.5981 55.5947 75.6022 56.634 78.334 58.2042C84.1354 61.4467 88.6348 66.4608 93.0135 71.354C93.4557 71.8512 92.7269 72.5868 92.2814 72.0895Z" fill="#CCCCCC"/>
<path d="M211.149 121.4L225.05 116.316L231.952 113.791C234.2 112.969 236.443 112.033 238.767 111.445C240.786 110.868 242.93 110.895 244.934 111.523C246.722 112.185 248.357 113.199 249.745 114.505C251.162 115.811 252.481 117.219 253.691 118.719C255.193 120.525 256.674 122.35 258.161 124.169C264.299 131.675 270.397 139.214 276.454 146.785C282.512 154.357 288.528 161.96 294.505 169.596C300.496 177.25 306.446 184.937 312.354 192.655C313.078 193.601 313.801 194.547 314.524 195.493C314.923 196.016 315.823 195.501 315.418 194.97C309.466 187.174 303.473 179.41 297.437 171.678C291.387 163.927 285.296 156.21 279.162 148.525C273.028 140.84 266.853 133.188 260.637 125.57C259.088 123.672 257.537 121.777 255.983 119.883C254.673 118.285 253.377 116.671 251.939 115.184C249.3 112.455 246.003 110.043 242.057 109.978C239.737 109.939 237.491 110.675 235.335 111.455C233.011 112.296 230.693 113.152 228.372 114.001L214.373 119.121L210.873 120.402C210.252 120.629 210.521 121.63 211.149 121.4L211.149 121.4Z" fill="#CCCCCC"/>
<path d="M73.9975 64.0744C66.9331 60.4437 57.8861 61.1548 51.3944 65.6908C63.7768 67.8271 76.0238 70.6855 88.0726 74.2513C83.0692 71.3192 79.1554 66.7253 73.9975 64.0744Z" fill="#CCCCCC"/>
<path d="M51.3248 65.6784L49.9648 66.7838C50.4249 66.3969 50.9031 66.0342 51.3944 65.6909C51.3712 65.6869 51.348 65.6824 51.3248 65.6784Z" fill="#CCCCCC"/>
<path d="M249.222 121.451C247.853 119.786 246.374 118.041 244.327 117.365L242.416 117.44C256.963 143.145 276.609 165.605 300.15 183.443C283.174 162.779 266.198 142.115 249.222 121.451Z" fill="#CCCCCC"/>
<path d="M130.39 107.71C131.274 110.923 133.267 113.719 136.014 115.605C137.077 116.328 138.333 117.022 138.697 118.255C138.888 119.041 138.77 119.87 138.368 120.571C137.966 121.264 137.477 121.902 136.913 122.47L136.862 122.663C134.226 121.101 131.718 119.125 130.261 116.429C128.805 113.732 128.602 110.199 130.39 107.71" fill="#CCCCCC"/>
<path d="M218.158 184.177C219.042 187.39 221.035 190.187 223.782 192.072C224.845 192.796 226.101 193.489 226.465 194.722C226.656 195.508 226.538 196.337 226.136 197.039C225.734 197.731 225.245 198.369 224.681 198.938L224.63 199.131C221.994 197.568 219.486 195.592 218.029 192.896C216.573 190.2 216.37 186.666 218.158 184.177" fill="#CCCCCC"/>
<path d="M42.9986 178.904C43.8829 182.117 45.8752 184.913 48.623 186.799C49.6853 187.522 50.9421 188.216 51.3056 189.449C51.4967 190.234 51.3789 191.064 50.9765 191.765C50.5748 192.458 50.0859 193.096 49.522 193.664L49.4705 193.857C46.8343 192.295 44.3263 190.319 42.8701 187.622C41.4139 184.926 41.2106 181.392 42.9986 178.904" fill="#CCCCCC"/>
<path d="M244.563 38.422C255.173 38.422 263.774 29.821 263.774 19.211C263.774 8.60107 255.173 0 244.563 0C233.953 0 225.352 8.60107 225.352 19.211C225.352 29.821 233.953 38.422 244.563 38.422Z" fill="#00CFB3"/>
<path d="M279.232 4.4714C269.921 3.21291 259.292 8.2453 256.879 17.3253C256.271 15.7109 255.165 14.3316 253.722 13.3867C252.278 12.4417 250.572 11.9802 248.849 12.0686C247.126 12.157 245.476 12.7908 244.137 13.8785C242.798 14.9662 241.839 16.4514 241.399 18.1196L242.465 18.883C262.417 23.1977 283.071 23.1043 302.983 18.6094C296.507 11.8031 288.542 5.72987 279.232 4.4714Z" fill="#CCCCCC"/>
<path d="M239.303 30.0861C229.993 28.8277 219.363 33.8601 216.95 42.94C216.342 41.3256 215.236 39.9463 213.793 39.0014C212.349 38.0565 210.643 37.5949 208.92 37.6833C207.197 37.7717 205.547 38.4056 204.208 39.4932C202.869 40.5809 201.91 42.0662 201.471 43.7343L202.537 44.4978C222.489 48.8124 243.142 48.7191 263.055 44.2241C256.578 37.4178 248.614 31.3446 239.303 30.0861Z" fill="#CCCCCC"/>
<path d="M320.565 34.9295C320.526 34.9296 320.488 34.9236 320.451 34.9118C220.852 3.41398 133.07 7.53288 76.9682 16.5347C69.3333 17.7593 61.678 19.1737 54.2149 20.739C52.3096 21.1381 50.3329 21.5659 48.3398 22.0114C45.9596 22.5415 43.611 23.0874 41.359 23.6333C40.3864 23.8636 39.4328 24.0957 38.4982 24.3297C37.0825 24.6791 35.646 25.0433 34.1061 25.4435C32.3855 25.8871 30.6372 26.3525 28.9088 26.8267C28.9025 26.8289 28.8961 26.8307 28.8895 26.8322L28.8897 26.8326C26.9375 27.3656 24.9956 27.9141 23.1176 28.4618C22.1013 28.7554 21.1198 29.0449 20.1798 29.3307C20.0747 29.3597 19.9817 29.3877 19.8873 29.4164L19.6853 29.4778C19.5684 29.5135 19.4529 29.5484 19.3374 29.5816L19.33 29.5838L19.3302 29.5841L19.0245 29.6791C18.6599 29.7894 18.3042 29.8972 17.9544 30.0046C8.70865 32.8548 3.62595 34.8824 3.57574 34.9023C3.52982 34.9207 3.48074 34.9299 3.43127 34.9293C3.38181 34.9287 3.33294 34.9184 3.28746 34.899C3.24197 34.8795 3.20076 34.8513 3.16619 34.8159C3.13161 34.7806 3.10434 34.7387 3.08594 34.6928C3.06753 34.6469 3.05836 34.5978 3.05892 34.5483C3.05949 34.4988 3.0698 34.45 3.08925 34.4045C3.1087 34.359 3.13692 34.3178 3.1723 34.2832C3.20768 34.2487 3.24952 34.2214 3.29543 34.203C3.34601 34.1831 8.45354 32.1452 17.7329 29.2844C18.0841 29.1766 18.4407 29.0688 18.8064 28.9581L19.0903 28.8698C19.1001 28.8661 19.1098 28.8632 19.1198 28.8602C19.2347 28.8275 19.3495 28.7925 19.4661 28.7572L19.6684 28.6958C19.7692 28.6653 19.8685 28.6351 19.9703 28.6071C20.9039 28.3231 21.8886 28.0329 22.9076 27.7382C24.7863 27.1901 26.73 26.6417 28.6837 26.1079C28.6898 26.1057 28.696 26.1042 28.7021 26.1024V26.102C30.4366 25.6264 32.1912 25.1592 33.9174 24.7141C35.4597 24.3135 36.8989 23.9486 38.317 23.5984C39.2556 23.3648 40.211 23.1322 41.1833 22.9005C43.438 22.3539 45.7913 21.8073 48.1758 21.2761C50.172 20.8302 52.152 20.4013 54.0604 20.0018C61.5351 18.434 69.2024 17.0174 76.8488 15.7909C133.031 6.77621 220.939 2.65067 320.678 34.1938C320.764 34.2208 320.837 34.2777 320.884 34.3541C320.932 34.4305 320.95 34.5213 320.937 34.6102C320.923 34.6991 320.878 34.7802 320.81 34.8387C320.741 34.8973 320.654 34.9295 320.565 34.9295Z" fill="#CCCCCC"/>
<path d="M99.0643 158.148C98.9339 157.767 98.7143 157.422 98.424 157.142C98.3168 157.043 98.2008 156.953 98.0774 156.875C97.0943 156.219 95.6252 156.073 94.691 156.875C94.5969 156.957 94.51 157.046 94.4311 157.142C94.1523 157.485 93.8661 157.82 93.5722 158.148C93.0901 158.698 92.5966 159.229 92.0806 159.745C91.9337 159.888 91.7868 160.035 91.6361 160.178C91.5494 160.265 91.4628 160.348 91.3762 160.431C91.0447 160.747 90.7057 161.052 90.3629 161.354C90.1821 161.516 90.0012 161.674 89.8167 161.828C89.5417 162.058 89.2667 162.288 88.988 162.51C88.9616 162.529 88.9352 162.548 88.9089 162.57C88.9013 162.574 88.8976 162.582 88.89 162.585C88.8863 162.585 88.8825 162.585 88.8787 162.593C88.8685 162.597 88.8595 162.604 88.8524 162.612C88.7695 162.668 88.713 162.706 88.6716 162.74C88.6866 162.732 88.7017 162.721 88.7168 162.714C88.6489 162.766 88.5774 162.819 88.5096 162.872C87.8504 163.358 87.1761 163.825 86.4868 164.262C84.7813 165.353 82.9899 166.304 81.1303 167.106C81.006 167.155 80.8779 167.207 80.7498 167.256C75.881 169.251 70.5995 170.029 65.3622 169.524C64.8273 169.483 64.2924 169.426 63.7575 169.355C63.1397 169.264 62.5257 169.155 61.9155 169.031C59.5923 168.567 57.3192 167.881 55.1276 166.981C52.3861 165.726 49.7787 164.196 47.3453 162.416C46.9686 162.149 46.5881 161.881 46.2077 161.621C46.6409 160.559 47.0665 159.497 47.4809 158.427C47.688 157.911 47.8877 157.395 48.0836 156.875C49.6242 152.871 51.0707 148.829 52.4569 144.772C53.8582 140.662 55.1803 136.529 56.4234 132.371C56.5515 131.95 56.6758 131.528 56.7963 131.106C57.448 128.91 58.0733 126.709 58.6722 124.502C58.7287 124.288 58.789 124.077 58.8417 123.862C59.015 123.229 59.1845 122.596 59.3503 121.964C59.727 120.536 58.8756 118.83 57.3764 118.487C56.6546 118.302 55.8891 118.404 55.2412 118.772C54.5934 119.14 54.1137 119.746 53.9034 120.461C53.7414 121.071 53.5794 121.677 53.4137 122.288C52.6189 125.237 51.7826 128.176 50.9049 131.106C50.7769 131.528 50.6488 131.95 50.5207 132.371C48.5846 138.753 46.4588 145.07 44.1434 151.323C43.8647 152.08 43.5822 152.834 43.2959 153.586C43.1565 153.956 43.0171 154.325 42.874 154.694C42.599 155.421 42.3165 156.148 42.034 156.875C41.872 157.301 41.7062 157.726 41.5405 158.148C41.4313 158.416 41.3258 158.683 41.2203 158.947C40.1463 158.561 39.0336 158.293 37.9017 158.148L37.7209 158.126C36.8434 158.02 35.9559 158.028 35.0803 158.148C33.7699 158.301 32.509 158.74 31.3868 159.434C30.2647 160.128 29.3086 161.06 28.5863 162.164C26.7895 164.993 26.8121 169.038 29.3321 171.441C31.9275 173.916 35.8563 173.897 38.9112 172.349C40.5302 171.473 41.8952 170.194 42.874 168.635C43.249 168.07 43.5935 167.485 43.9061 166.883C43.9852 166.936 44.0643 166.989 44.1434 167.045C44.4448 167.256 44.7461 167.471 45.0437 167.682C46.7776 168.938 48.6048 170.06 50.5094 171.038C54.6047 173.074 59.0131 174.407 63.5503 174.982C63.652 174.994 63.75 175.009 63.8517 175.02C64.3527 175.084 64.8574 175.133 65.3622 175.174C72.6029 175.72 79.8525 174.238 86.2984 170.895C86.8446 170.613 87.3858 170.316 87.9219 170.006C88.7544 169.524 89.5681 169.012 90.3629 168.469C90.7961 168.176 91.218 167.878 91.6361 167.565C93.4632 166.22 95.1664 164.713 96.7251 163.064C97.3165 162.442 97.8828 161.801 98.424 161.139C98.9357 160.598 99.2307 159.887 99.2527 159.143C99.2497 158.802 99.186 158.466 99.0643 158.148ZM36.6888 167.121C36.7679 167.064 36.847 167.004 36.9223 166.944C36.8997 167 36.7905 167.064 36.6888 167.121H36.6888ZM37.898 165.904C37.8113 166.002 37.7322 166.1 37.6456 166.198C37.382 166.493 37.0988 166.77 36.798 167.027C36.7566 167.064 36.7114 167.102 36.6662 167.136C36.6657 167.136 36.6652 167.136 36.6647 167.136C36.6643 167.136 36.6639 167.137 36.6635 167.137C36.6632 167.137 36.6629 167.138 36.6627 167.138C36.6625 167.139 36.6624 167.139 36.6624 167.14C36.608 167.164 36.5552 167.192 36.5042 167.223C36.3422 167.32 36.1765 167.411 36.007 167.494C35.6751 167.616 35.3337 167.71 34.9862 167.776C34.7192 167.796 34.4512 167.798 34.1838 167.784H34.1763C33.9918 167.743 33.8095 167.693 33.6301 167.633C33.5397 167.588 33.4531 167.535 33.3664 167.482C33.3325 167.452 33.3024 167.422 33.2835 167.403C33.2467 167.37 33.2127 167.333 33.1819 167.294C33.1819 167.294 33.1818 167.293 33.1816 167.293C33.1814 167.292 33.1811 167.292 33.1808 167.291C33.1804 167.291 33.18 167.291 33.1795 167.291C33.1791 167.29 33.1786 167.29 33.1781 167.29C33.1366 167.215 33.0914 167.14 33.05 167.064C33.0479 167.062 33.0465 167.06 33.0463 167.057C33.0161 166.963 32.9898 166.865 32.9672 166.767C32.959 166.595 32.9602 166.422 32.9709 166.251C33.0215 166.01 33.0894 165.773 33.1743 165.542C33.2506 165.379 33.3374 165.22 33.4342 165.068C33.4418 165.053 33.4794 164.993 33.5209 164.925C33.5246 164.921 33.5246 164.921 33.5246 164.917C33.5811 164.853 33.6377 164.785 33.6979 164.725C33.7996 164.612 33.9089 164.514 34.0181 164.412C34.2306 164.273 34.4506 164.146 34.6773 164.032C35.0369 163.904 35.4059 163.805 35.781 163.734C36.3341 163.69 36.89 163.695 37.4422 163.749C37.9652 163.84 38.4813 163.967 38.9866 164.13C38.6803 164.724 38.3316 165.296 37.9432 165.84C37.9281 165.863 37.913 165.885 37.898 165.904ZM33.7092 164.665C33.676 164.718 33.6368 164.767 33.5924 164.812C33.6223 164.756 33.6619 164.706 33.7092 164.665Z" fill="#3F3D56"/>
<path d="M87.7412 119.677C87.7073 120.86 87.6734 122.043 87.6395 123.226C87.5679 125.851 87.4938 128.478 87.4172 131.106C87.3381 134.063 87.2552 137.019 87.1686 139.973C87.1272 141.499 87.0845 143.024 87.0405 144.55C86.9237 148.659 86.8082 152.768 86.694 156.875C86.6827 157.301 86.6676 157.722 86.6563 158.148C86.5998 160.186 86.5433 162.224 86.4868 164.262C86.4228 166.473 86.36 168.684 86.2984 170.895C86.2532 172.553 86.2068 174.211 86.1591 175.871C85.8201 187.899 85.4811 199.926 85.142 211.954C85.1277 212.699 84.8255 213.409 84.2987 213.936C83.772 214.463 83.0617 214.765 82.3169 214.779C81.5695 214.773 80.8544 214.474 80.3258 213.945C79.7973 213.417 79.4977 212.701 79.4917 211.954C79.6801 205.189 79.8709 198.424 80.0643 191.658C80.2338 185.541 80.4058 179.423 80.5803 173.306C80.6369 171.291 80.6934 169.274 80.7499 167.256C80.8365 164.22 80.9219 161.184 81.006 158.148C81.0173 157.722 81.0324 157.301 81.0437 156.875C81.0512 156.502 81.0625 156.133 81.0738 155.76C81.2395 149.865 81.4053 143.968 81.571 138.071C81.6388 135.75 81.7041 133.429 81.7669 131.106C81.8422 128.458 81.9176 125.811 81.9929 123.165C82.0268 122.001 82.057 120.841 82.0909 119.677C82.1052 118.932 82.4074 118.222 82.9342 117.695C83.4609 117.169 84.1712 116.866 84.916 116.852C85.6634 116.858 86.3785 117.158 86.907 117.686C87.4356 118.215 87.7351 118.93 87.7412 119.677Z" fill="#3F3D56"/>
<path d="M242.721 120.461C239.758 131.679 236.217 142.736 232.113 153.587C230.98 156.581 229.821 159.568 228.583 162.519L228.867 161.844C228.315 163.25 227.608 164.591 226.762 165.842C226.704 165.922 226.646 166.002 226.586 166.082C226.879 165.707 226.934 165.633 226.753 165.86C226.657 165.973 226.563 166.086 226.464 166.197C226.2 166.492 225.917 166.769 225.617 167.027C225.541 167.092 225.464 167.155 225.386 167.217L225.739 166.942C225.698 167.039 225.411 167.167 225.321 167.222C225.031 167.397 224.728 167.551 224.415 167.681L225.09 167.396C224.577 167.603 224.042 167.75 223.496 167.833L224.247 167.733C223.71 167.807 223.166 167.813 222.628 167.75L223.379 167.851C222.939 167.79 222.508 167.674 222.097 167.505L222.772 167.79C222.552 167.695 222.341 167.582 222.139 167.453C222.037 167.386 221.723 167.148 222.134 167.462C222.56 167.788 222.188 167.49 222.101 167.403C222.027 167.331 221.961 167.253 221.89 167.179C221.557 166.838 222.265 167.765 222.039 167.367C221.918 167.167 221.808 166.961 221.708 166.75L221.993 167.425C221.864 167.104 221.772 166.769 221.719 166.426L221.82 167.177C221.766 166.752 221.766 166.321 221.819 165.895L221.718 166.646C221.787 166.171 221.913 165.705 222.092 165.26L221.808 165.935C221.933 165.635 222.081 165.346 222.251 165.069C222.33 164.926 222.422 164.791 222.526 164.665C222.544 164.671 222.048 165.235 222.311 164.95C222.38 164.876 222.445 164.797 222.514 164.724C222.626 164.605 222.746 164.497 222.863 164.385C223.257 164.011 222.312 164.749 222.766 164.453C223.096 164.236 223.442 164.048 223.802 163.888L223.127 164.173C223.73 163.925 224.363 163.756 225.009 163.668L224.258 163.769C225.067 163.676 225.885 163.686 226.691 163.798L225.94 163.697C226.962 163.852 227.961 164.133 228.913 164.533L228.238 164.248C230.268 165.12 232.067 166.414 233.861 167.683C235.595 168.938 237.422 170.06 239.326 171.038C243.421 173.074 247.83 174.408 252.367 174.983C258.875 175.78 265.478 174.931 271.572 172.512C277.665 170.093 283.054 166.182 287.243 161.139C287.754 160.597 288.049 159.886 288.071 159.142C288.065 158.393 287.768 157.677 287.243 157.144C286.207 156.192 284.249 155.924 283.248 157.144C282.299 158.302 281.279 159.4 280.194 160.431C279.688 160.912 279.167 161.378 278.634 161.829C278.329 162.086 278.02 162.339 277.707 162.586C277.559 162.703 277.097 163.015 277.806 162.512C277.643 162.627 277.488 162.753 277.327 162.872C274.955 164.62 272.384 166.083 269.668 167.228L270.343 166.943C267.429 168.165 264.369 169.004 261.238 169.438L261.989 169.337C258.769 169.76 255.507 169.756 252.288 169.322L253.039 169.423C249.821 168.981 246.674 168.124 243.676 166.873L244.351 167.158C241.458 165.878 238.713 164.288 236.163 162.415C234.836 161.432 233.437 160.552 231.977 159.78C230.276 158.912 228.435 158.352 226.538 158.127C222.983 157.709 219.36 159.094 217.405 162.165C215.606 164.992 215.63 169.038 218.149 171.441C220.743 173.917 224.672 173.896 227.73 172.348C230.675 170.856 232.443 167.758 233.687 164.836C236.486 158.261 238.965 151.534 241.274 144.772C243.558 138.083 245.63 131.326 247.488 124.502C247.719 123.656 247.946 122.81 248.169 121.963C248.546 120.536 247.694 118.829 246.196 118.488C245.474 118.302 244.708 118.404 244.059 118.772C243.411 119.14 242.931 119.746 242.721 120.461L242.721 120.461Z" fill="#3F3D56"/>
<path d="M270.909 119.677L269.892 155.761L268.881 191.657L268.309 211.954C268.315 212.702 268.615 213.416 269.143 213.945C269.672 214.473 270.386 214.773 271.134 214.779C271.879 214.765 272.589 214.463 273.116 213.936C273.642 213.409 273.944 212.699 273.959 211.954L274.976 175.87L275.987 139.974L276.559 119.677C276.553 118.93 276.253 118.215 275.725 117.686C275.196 117.158 274.482 116.858 273.734 116.852C272.989 116.866 272.279 117.168 271.752 117.695C271.226 118.222 270.923 118.932 270.909 119.677Z" fill="#3F3D56"/>
<path opacity="0.2" d="M173.122 201.88H173.999V161.935H194.464V161.06H173.999V144.205H189.803C189.572 143.911 189.333 143.62 189.088 143.333H173.999V132.201C173.709 132.077 173.417 131.958 173.122 131.845V143.333H155.925V129.069C155.631 129.083 155.341 129.103 155.048 129.128V143.333H141.329V132.691C141.035 132.821 140.744 132.959 140.456 133.103V143.333H128.924V144.205H140.456V161.06H128.924V161.935H140.456V201.88H141.329V161.935C143.131 161.935 144.915 162.289 146.58 162.979C148.244 163.668 149.757 164.678 151.031 165.952C152.305 167.226 153.315 168.739 154.005 170.404C154.694 172.068 155.049 173.852 155.048 175.654V201.88H155.925V161.935H173.122V201.88ZM141.329 161.06V144.205H155.048V161.06H141.329ZM155.925 161.06V144.205H156.27C158.483 144.206 160.674 144.642 162.719 145.489C164.764 146.336 166.622 147.577 168.186 149.143C169.751 150.708 170.993 152.566 171.84 154.61C172.686 156.655 173.122 158.847 173.122 161.06H155.925Z" fill="black"/>
<path d="M167.764 189.903C166.66 194.829 164.015 199.276 160.212 202.597C159.933 202.838 159.654 203.072 159.364 203.302C158.66 203.366 157.961 203.431 157.266 203.497C156.69 203.55 156.121 203.607 155.556 203.659L155.454 203.671L155.383 203.053L155.096 200.552C153.986 198.739 153.298 196.699 153.082 194.584C152.867 192.468 153.131 190.332 153.853 188.332C154.848 185.65 156.648 183.281 158.419 180.93C160.864 177.683 163.24 174.474 163.327 170.515C164.53 172.054 165.53 173.742 166.303 175.536C165.574 175.879 164.919 176.362 164.374 176.956C164.22 177.126 164.065 177.363 164.171 177.566C164.261 177.74 164.487 177.781 164.683 177.804C165.154 177.853 165.629 177.902 166.1 177.95C166.476 177.992 166.853 178.03 167.23 178.071C167.685 179.567 167.994 181.103 168.152 182.659C168.406 185.079 168.275 187.524 167.764 189.903Z" fill="#3F3D56"/>
<path d="M180.27 180.03C178.048 181.646 176.748 183.97 175.739 186.532C174.704 186.863 173.773 187.457 173.038 188.257C172.884 188.426 172.729 188.664 172.835 188.867C172.925 189.04 173.151 189.082 173.347 189.104C173.818 189.153 174.292 189.202 174.763 189.251C173.754 192.28 172.827 195.414 171.042 197.971C169.854 199.66 168.306 201.064 166.51 202.081C166.02 202.36 165.515 202.611 164.996 202.831C163.082 202.978 161.205 203.135 159.364 203.302C158.66 203.366 157.961 203.431 157.266 203.497C156.69 203.55 156.121 203.607 155.556 203.659C155.552 203.452 155.552 203.245 155.556 203.038C155.675 197.519 157.705 192.212 161.301 188.023C161.47 187.827 161.643 187.635 161.82 187.443C163.642 185.498 165.783 183.88 168.152 182.659C171.885 180.718 176.069 179.811 180.27 180.03Z" fill="#00CFB3"/>
<path d="M157.918 201.565L157.485 202.846L157.266 203.497C156.69 203.55 156.121 203.607 155.556 203.659L155.454 203.671C154.829 203.735 154.207 203.799 153.586 203.863C153.424 203.674 153.262 203.482 153.104 203.286C149.172 198.525 147.285 192.401 147.854 186.253C148.424 180.104 151.404 174.431 156.144 170.473C155.646 173.076 156.227 175.57 157.18 178.045C157.078 178.086 156.98 178.128 156.886 178.173C156.157 178.516 155.501 178.998 154.957 179.593C154.803 179.762 154.648 180 154.754 180.203C154.844 180.376 155.07 180.418 155.266 180.44C155.737 180.489 156.211 180.538 156.682 180.587C157.059 180.629 157.436 180.666 157.812 180.708C157.989 180.727 158.166 180.746 158.344 180.764C158.37 180.821 158.392 180.874 158.419 180.93C159.492 183.258 160.649 185.597 161.3 188.023C161.464 188.632 161.592 189.249 161.685 189.873C161.975 191.979 161.787 194.124 161.135 196.148C160.483 198.173 159.383 200.024 157.918 201.565Z" fill="#00CFB3"/>
<path d="M195.834 146.931C192.592 140.605 187.568 135.283 181.659 131.372C175.731 127.466 168.929 125.088 161.859 124.449C160.933 124.364 160.003 124.315 159.072 124.301C157.972 124.284 141.418 129.059 135.873 132.958C130.331 136.809 125.772 141.909 122.564 147.847C119.361 153.817 117.786 160.525 117.996 167.297C118.271 174.109 120.17 180.757 123.534 186.687C126.853 192.597 131.566 197.608 137.263 201.282C143.04 204.968 148.844 214.743 155.665 215.088C162.538 215.436 170.376 206.215 176.645 203.416C182.913 200.593 188.333 196.176 192.362 190.606C196.278 185.148 198.812 178.821 199.745 172.168C200.715 165.357 200.263 158.332 197.936 151.821C197.34 150.148 196.638 148.515 195.834 146.931C195.164 145.61 193.199 145.124 191.969 145.917C191.335 146.307 190.877 146.927 190.688 147.647C190.499 148.367 190.595 149.131 190.956 149.782C191.349 150.558 191.715 151.346 192.054 152.147L191.769 151.472C193.05 154.552 193.921 157.786 194.359 161.092L194.258 160.341C194.725 163.928 194.717 167.561 194.233 171.145L194.334 170.394C193.846 173.979 192.889 177.484 191.489 180.819L191.773 180.144C191.053 181.846 190.213 183.495 189.26 185.078C188.777 185.878 188.265 186.659 187.723 187.422C187.485 187.756 187.24 188.085 186.993 188.413C186.67 188.84 187.432 187.854 187.099 188.274C187.042 188.345 186.986 188.417 186.929 188.488C186.758 188.702 186.584 188.914 186.408 189.124C185.234 190.525 183.952 191.833 182.575 193.035C182.232 193.334 181.883 193.627 181.529 193.913C181.352 194.056 181.178 194.204 180.994 194.337C181.001 194.332 181.589 193.885 181.24 194.144C181.131 194.226 181.023 194.309 180.913 194.39C180.182 194.931 179.432 195.445 178.662 195.931C176.891 197.047 175.032 198.019 173.104 198.837L173.779 198.552C170.454 199.952 166.959 200.908 163.384 201.396L164.135 201.296C160.562 201.778 156.94 201.785 153.366 201.315L154.117 201.416C150.868 200.979 147.69 200.12 144.664 198.86L145.339 199.145C143.586 198.405 141.896 197.524 140.285 196.511C139.488 196.009 138.711 195.476 137.956 194.911C137.848 194.831 137.741 194.749 137.634 194.668C137.289 194.408 137.881 194.86 137.886 194.863C137.686 194.719 137.493 194.566 137.308 194.402C136.943 194.105 136.584 193.801 136.23 193.49C134.815 192.244 133.494 190.895 132.277 189.456C131.973 189.096 131.675 188.73 131.383 188.359C131.257 188.199 131.027 187.873 131.535 188.558C131.468 188.468 131.399 188.38 131.331 188.29C131.169 188.075 131.009 187.858 130.851 187.639C130.298 186.874 129.772 186.09 129.273 185.287C128.147 183.469 127.164 181.566 126.333 179.595L126.618 180.27C125.258 177.036 124.329 173.637 123.853 170.161L123.954 170.912C123.524 167.708 123.518 164.461 123.936 161.256L123.835 162.007C124.263 158.902 125.098 155.868 126.319 152.981L126.034 153.656C126.802 151.85 127.708 150.105 128.744 148.437C129.263 147.602 129.813 146.788 130.393 145.994C130.525 145.814 130.659 145.635 130.793 145.456C130.915 145.295 131.251 144.894 130.678 145.603C130.735 145.533 130.789 145.462 130.844 145.392C131.163 144.988 131.489 144.59 131.823 144.199C133.088 142.719 134.458 141.331 135.923 140.048C136.293 139.724 136.669 139.406 137.051 139.095C137.224 138.954 137.399 138.814 137.575 138.676C137.645 138.621 137.716 138.567 137.786 138.511C137.034 139.11 137.577 138.674 137.748 138.546C138.535 137.956 139.343 137.396 140.172 136.865C142.015 135.687 143.954 134.665 145.968 133.811L145.293 134.096C148.216 132.869 161.167 129.972 163.523 130.288L162.772 130.187C166.234 130.67 169.617 131.605 172.837 132.968L172.162 132.683C173.793 133.376 175.378 134.172 176.908 135.067C177.672 135.515 178.422 135.988 179.156 136.484C179.503 136.72 179.847 136.96 180.187 137.206C180.357 137.329 180.526 137.453 180.694 137.578C180.788 137.648 180.88 137.719 180.974 137.788C181.365 138.082 180.434 137.363 180.845 137.688C182.218 138.767 183.523 139.931 184.75 141.174C185.353 141.788 185.935 142.421 186.497 143.074C186.785 143.409 187.067 143.749 187.343 144.094C187.48 144.265 187.948 144.885 187.375 144.126C187.515 144.311 187.656 144.496 187.795 144.683C188.985 146.294 190.042 148 190.956 149.782C191.631 151.1 193.587 151.591 194.821 150.796C195.455 150.406 195.914 149.786 196.103 149.066C196.292 148.347 196.195 147.581 195.834 146.931Z" fill="#3F3D56"/>
<path d="M162.916 193.035C162.624 193.049 162.335 192.972 162.089 192.816C161.842 192.66 161.649 192.431 161.537 192.162C161.424 191.893 161.397 191.595 161.459 191.31C161.521 191.025 161.67 190.766 161.884 190.567C161.92 190.425 161.946 190.322 161.981 190.18C161.969 190.148 161.956 190.117 161.943 190.086C160.632 186.961 152.267 195.674 151.906 198.612C151.747 199.91 151.814 201.226 152.104 202.502C149.395 196.592 147.988 190.168 147.979 183.666C147.979 182.035 148.069 180.405 148.251 178.783C148.401 177.454 148.609 176.134 148.875 174.824C150.327 167.715 153.445 161.051 157.972 155.381C160.562 155.525 162.831 155.131 163.05 150.113C163.089 149.22 163.751 148.447 163.897 147.568C163.65 147.6 163.398 147.621 163.151 147.637C163.074 147.641 162.993 147.645 162.916 147.649L162.887 147.65C162.615 147.662 162.346 147.596 162.111 147.458C161.877 147.321 161.687 147.119 161.564 146.876C161.442 146.633 161.392 146.36 161.421 146.09C161.451 145.819 161.557 145.563 161.729 145.352C161.835 145.221 161.942 145.089 162.049 144.958C162.211 144.756 162.377 144.557 162.539 144.354C162.558 144.335 162.576 144.315 162.592 144.294C162.778 144.063 162.965 143.836 163.151 143.605C162.811 143.076 162.353 142.634 161.814 142.312C159.946 141.218 157.368 141.976 156.019 143.665C154.666 145.355 154.41 147.726 154.88 149.837C155.343 151.634 156.107 153.338 157.142 154.878C157.04 155.008 156.935 155.134 156.834 155.263C154.982 157.645 153.367 160.202 152.014 162.898C152.397 159.908 147.716 149.108 145.905 146.821C143.731 144.073 139.271 145.272 138.888 148.755C138.885 148.789 138.881 148.823 138.877 148.857C139.146 149.008 139.41 149.169 139.667 149.34C139.991 149.556 140.241 149.865 140.386 150.226C140.531 150.587 140.564 150.983 140.48 151.363C140.396 151.743 140.199 152.089 139.915 152.355C139.631 152.621 139.273 152.795 138.889 152.854L138.849 152.86C135.25 158 146.789 171.376 149.677 168.373C148.318 172.225 147.465 176.238 147.14 180.311C146.957 182.714 146.967 185.127 147.173 187.528L147.161 187.443C146.519 182.214 135.509 174.439 132.294 175.087C130.442 175.46 128.618 175.375 128.899 177.243C128.904 177.273 128.908 177.303 128.913 177.333C129.412 177.536 129.898 177.77 130.368 178.034C130.636 178.185 130.9 178.346 131.157 178.517C131.481 178.733 131.731 179.042 131.876 179.403C132.021 179.764 132.054 180.16 131.97 180.54C131.886 180.92 131.689 181.266 131.405 181.532C131.121 181.798 130.763 181.972 130.379 182.031L130.339 182.037C130.311 182.041 130.286 182.045 130.258 182.049C128.62 187.687 140.77 196.785 148.157 193.89H148.161C148.894 197.072 149.954 200.168 151.326 203.13H162.632C162.673 203.004 162.709 202.875 162.746 202.749C161.699 202.815 160.649 202.752 159.617 202.563C160.456 201.533 161.295 200.496 162.134 199.467C162.153 199.447 162.17 199.427 162.187 199.406C162.612 198.879 163.042 198.356 163.467 197.829L163.467 197.829C163.49 196.214 163.305 194.603 162.916 193.035L162.916 193.035ZM149.969 167.566L149.975 167.558L149.969 167.574V167.566ZM147.464 190.142L147.367 189.923C147.371 189.765 147.371 189.607 147.367 189.445C147.367 189.4 147.359 189.356 147.359 189.311C147.396 189.591 147.428 189.871 147.468 190.15L147.464 190.142Z" fill="#3F3D56"/>
<path d="M35.8789 169.509C38.1673 169.509 40.0225 167.654 40.0225 165.365C40.0225 163.077 38.1673 161.222 35.8789 161.222C33.5905 161.222 31.7354 163.077 31.7354 165.365C31.7354 167.654 33.5905 169.509 35.8789 169.509Z" fill="#3F3D56"/>
<path d="M85.6016 214.711C87.89 214.711 89.7451 212.856 89.7451 210.568C89.7451 208.279 87.89 206.424 85.6016 206.424C83.3131 206.424 81.458 208.279 81.458 210.568C81.458 212.856 83.3131 214.711 85.6016 214.711Z" fill="#3F3D56"/>
<path d="M274.322 214.711C276.61 214.711 278.465 212.856 278.465 210.568C278.465 208.279 276.61 206.424 274.322 206.424C272.033 206.424 270.178 208.279 270.178 210.568C270.178 212.856 272.033 214.711 274.322 214.711Z" fill="#3F3D56"/>
<path d="M284.492 161.975C286.781 161.975 288.636 160.12 288.636 157.832C288.636 155.543 286.781 153.688 284.492 153.688C282.204 153.688 280.349 155.543 280.349 157.832C280.349 160.12 282.204 161.975 284.492 161.975Z" fill="#3F3D56"/>
<path d="M272.438 123.553C274.727 123.553 276.582 121.698 276.582 119.41C276.582 117.121 274.727 115.266 272.438 115.266C270.15 115.266 268.295 117.121 268.295 119.41C268.295 121.698 270.15 123.553 272.438 123.553Z" fill="#3F3D56"/>
<path d="M99.539 157.832C99.5365 158.89 99.1272 159.907 98.3958 160.672C97.6644 161.437 96.6668 161.892 95.6096 161.942C94.5523 161.992 93.5163 161.633 92.7159 160.941C91.9156 160.248 91.4121 159.275 91.3096 158.221C91.2072 157.168 91.5137 156.115 92.1657 155.281C92.8177 154.448 93.7653 153.896 94.8124 153.742C95.8594 153.587 96.9259 153.841 97.7909 154.451C98.656 155.061 99.2535 155.98 99.4599 157.018C99.513 157.286 99.5395 157.559 99.539 157.832Z" fill="#3F3D56"/>
<path d="M182.41 135.607C184.699 135.607 186.554 133.752 186.554 131.464C186.554 129.175 184.699 127.32 182.41 127.32C180.122 127.32 178.267 129.175 178.267 131.464C178.267 133.752 180.122 135.607 182.41 135.607Z" fill="#3F3D56"/>
<path d="M141.351 131.464C141.349 132.522 140.939 133.539 140.208 134.304C139.477 135.069 138.479 135.524 137.422 135.574C136.365 135.624 135.329 135.265 134.528 134.573C133.728 133.88 133.224 132.907 133.122 131.853C133.019 130.8 133.326 129.747 133.978 128.913C134.63 128.08 135.578 127.528 136.625 127.374C137.672 127.219 138.738 127.473 139.603 128.083C140.468 128.693 141.066 129.612 141.272 130.65C141.325 130.918 141.352 131.19 141.351 131.464Z" fill="#3F3D56"/>
<path d="M87.8617 119.41C87.8592 120.468 87.4499 121.485 86.7185 122.25C85.9871 123.015 84.9895 123.47 83.9323 123.52C82.8751 123.57 81.8391 123.211 81.0387 122.519C80.2383 121.826 79.7348 120.853 79.6324 119.799C79.53 118.746 79.8365 117.693 80.4884 116.859C81.1404 116.026 82.088 115.474 83.1351 115.32C84.1822 115.165 85.2486 115.419 86.1137 116.029C86.9787 116.639 87.5763 117.558 87.7826 118.596C87.8357 118.864 87.8622 119.137 87.8617 119.41Z" fill="#3F3D56"/>
<path d="M225.729 171.016C228.017 171.016 229.873 169.161 229.873 166.872C229.873 164.584 228.017 162.729 225.729 162.729C223.441 162.729 221.585 164.584 221.585 166.872C221.585 169.161 223.441 171.016 225.729 171.016Z" fill="#3F3D56"/>
<path d="M160.562 133.347C163.891 133.347 166.589 130.649 166.589 127.32C166.589 123.992 163.891 121.293 160.562 121.293C157.234 121.293 154.535 123.992 154.535 127.32C154.535 130.649 157.234 133.347 160.562 133.347Z" fill="#3F3D56"/>
<path d="M323.551 215.028L0.448511 215.144C0.389611 215.144 0.331287 215.132 0.276871 215.11C0.222455 215.087 0.173014 215.054 0.131366 215.012C0.0897172 214.971 0.056676 214.921 0.0341361 214.867C0.0115962 214.813 0 214.754 0 214.695C0 214.636 0.0115962 214.578 0.0341361 214.524C0.056676 214.469 0.0897172 214.42 0.131366 214.378C0.173014 214.337 0.222455 214.303 0.276871 214.281C0.331287 214.258 0.389611 214.247 0.448511 214.247L323.551 214.131C323.67 214.131 323.784 214.179 323.868 214.263C323.952 214.347 323.999 214.461 323.999 214.58C323.999 214.698 323.952 214.812 323.868 214.896C323.784 214.98 323.67 215.028 323.551 215.028Z" fill="#CCCCCC"/>
</g>
<defs>
<clipPath id="clip0_2_478">
<rect width="324" height="215.144" fill="white"/>
</clipPath>
</defs>
</svg>
